PathFileType	4	(X/Y/Z)	C:/Users/opensim2020/Desktop/walking_exp_matlab/subject02_walking04_straight_02.trc	
DataRate	CameraRate	NumFrames	NumMarkers	Units	OrigDataRate	OrigDataStartFrame	OrigNumFrames	
100.00	100.00	4	42	mm	100.00	1633	220	
Frame#	Time	LFHD			RFHD			LBHD			RBHD			C7			T10			CLAV			STRN			RBAK			LSHO			LUPA			LELB			LFRM			LWRA			LWRB			LFIN			RSHO			RUPA			RELB			RFRM			RWRA			RWRB			RFIN			LASI			RASI			LPSI			RPSI			LTHI			LKNE			LTIB			LANK			LHEE			LTOE			RTHI			RKNE			RTIB			RANK			RHEE			RTOE			*39			*40			*41			
		X1	Y1	Z1	X2	Y2	Z2	X3	Y3	Z3	X4	Y4	Z4	X5	Y5	Z5	X6	Y6	Z6	X7	Y7	Z7	X8	Y8	Z8	X9	Y9	Z9	X10	Y10	Z10	X11	Y11	Z11	X12	Y12	Z12	X13	Y13	Z13	X14	Y14	Z14	X15	Y15	Z15	X16	Y16	Z16	X17	Y17	Z17	X18	Y18	Z18	X19	Y19	Z19	X20	Y20	Z20	X21	Y21	Z21	X22	Y22	Z22	X23	Y23	Z23	X24	Y24	Z24	X25	Y25	Z25	X26	Y26	Z26	X27	Y27	Z27	X28	Y28	Z28	X29	Y29	Z29	X30	Y30	Z30	X31	Y31	Z31	X32	Y32	Z32	X33	Y33	Z33	X34	Y34	Z34	X35	Y35	Z35	X36	Y36	Z36	X37	Y37	Z37	X38	Y38	Z38	X39	Y39	Z39	X40	Y40	Z40	X41	Y41	Z41	X42	Y42	Z42	

138	1.370	1492.65552	-151.69446	1732.50342	1351.51758	-132.43570	1708.44141	1520.18347	-18.65403	1667.31396	1381.37561	12.53351	1643.28186	1448.85352	54.14488	1525.34106	1428.99243	110.55951	1248.61707	1461.72400	-81.63078	1451.41357	1452.11267	-131.77504	1280.81238	1378.91919	113.99603	1352.20203	1630.12549	-10.62854	1495.71716	1710.68201	-0.24650	1295.08643	1725.23193	-8.05273	1153.40173	1739.01416	-39.39936	1024.38672	1712.34302	-120.94838	912.26740	1742.01526	-72.89819	905.90900	1746.65039	-103.22781	846.71692	1263.87781	-25.71173	1488.91003	1175.79358	15.56557	1303.40942	1155.14441	11.86347	1157.23865	1131.37256	-9.40597	1040.09241	1142.97998	-52.32631	911.13611	1113.51721	-3.85948	910.79034	1105.87891	-39.07740	848.01337	1574.80969	-103.69971	977.73651	1319.94031	-139.21300	979.13165	1464.37573	92.31760	1026.67126	1349.62842	80.94718	1034.25769	1637.61047	-47.59589	671.67511	1626.69019	-37.77719	487.96606	1599.40820	111.28847	382.58215	1560.47351	246.07004	209.01492	1497.28784	269.78430	201.29433	1613.02502	177.45782	77.50330	1250.39661	-101.69444	674.13849	1301.04919	-111.45370	465.66302	1297.59875	-76.36543	279.33832	1341.80762	-56.64756	88.88432	1397.94897	-19.36222	36.79001	1336.99146	-209.67078	36.39156	1412.68384	-43.69837	1801.94177						 
139	1.380	1492.40137	-161.18010	1733.49976	1351.15100	-142.36438	1709.71558	1519.37341	-27.96947	1668.41199	1380.43726	2.78007	1644.71765	1447.38135	44.73362	1526.86218	1426.69226	101.89006	1250.39697	1460.88696	-90.82353	1452.44653	1451.29468	-140.49440	1281.70947	1376.60510	104.90620	1354.34521	1628.76135	-19.24101	1496.53430	1708.72363	-5.88209	1295.75415	1722.76965	-11.57435	1154.05750	1736.43689	-39.34900	1024.39990	1709.52527	-117.42840	909.64978	1739.44165	-69.36117	904.98767	1743.36865	-97.81525	844.36304	1263.03687	-36.40779	1490.64880	1173.65515	3.04672	1305.33228	1152.26367	-2.03996	1159.11023	1128.52271	-25.20506	1042.03845	1140.92883	-69.41612	913.74365	1110.74646	-21.41600	912.80518	1103.45874	-57.55576	850.43164	1574.13879	-111.53735	979.66809	1318.38110	-146.82320	979.56647	1462.88708	84.36599	1028.43311	1348.27783	72.95827	1035.38330	1637.61365	-61.12856	674.16400	1626.29895	-54.71816	490.05249	1597.09009	92.37411	382.74356	1557.76978	223.76099	206.40875	1494.67676	247.45779	197.89383	1611.53638	151.86552	77.75761	1249.80396	-105.90807	674.08667	1300.65662	-112.84261	465.40457	1297.46729	-76.35192	279.59088	1341.97791	-56.67979	89.01131	1398.06604	-19.38920	36.85840	1336.93213	-209.69005	36.30494	1412.20422	-53.50973	1803.26501						 
140	1.390	1492.00476	-170.82751	1734.27283	1350.92212	-152.25040	1710.91296	1518.33740	-37.42848	1669.33350	1379.54102	-6.99573	1646.05444	1445.94397	35.35715	1528.22974	1424.50146	93.26798	1252.05823	1460.07471	-99.94457	1453.38232	1450.41089	-149.14854	1282.53845	1374.26367	95.64463	1356.18054	1627.80017	-27.49194	1497.47937	1706.84717	-11.61763	1296.38721	1720.40405	-14.86519	1154.77161	1733.93274	-39.18091	1024.52539	1707.04810	-113.91886	907.63379	1737.06897	-65.91281	904.32892	1740.70728	-92.07201	842.80560	1262.14355	-47.05604	1492.41223	1171.46069	-9.45562	1307.16199	1149.39917	-15.94839	1160.96252	1126.32129	-40.86732	1044.36084	1138.99109	-86.79902	916.57916	1108.00732	-39.17059	914.93903	1101.24133	-76.33147	853.10742	1573.16028	-119.63229	981.73346	1316.71338	-154.42712	980.24878	1461.65588	76.32778	1030.01575	1347.22339	65.10415	1036.25159	1637.54700	-74.45150	676.62402	1625.74304	-71.44521	492.01147	1595.27258	73.40108	382.16550	1555.57507	200.90146	202.89442	1492.59351	224.74095	193.55901	1609.95251	125.31583	77.25317	1249.33508	-109.18910	673.92407	1300.25623	-114.85469	465.43454	1296.89917	-76.37845	279.76968	1342.06677	-56.76480	89.08820	1398.26807	-19.43055	36.89066	1336.87036	-209.69806	36.24834	1411.83447	-63.35558	1804.45752						 
141	1.400	1492.05750	-180.25706	1735.07141	1350.81299	-162.23067	1712.01331	1517.96899	-46.46806	1670.32654	1378.68152	-16.69304	1647.30176	1444.52527	26.12288	1529.51819	1422.43103	84.70439	1253.59143	1459.29407	-108.96340	1454.26636	1449.51697	-157.67584	1283.26685	1371.69202	85.98536	1357.83899	1626.63586	-35.86810	1498.20715	1705.36523	-17.09668	1297.18677	1718.14746	-18.00491	1155.47656	1731.54309	-39.03635	1024.79700	1704.38940	-110.51168	905.76764	1734.64172	-62.58199	903.86536	1737.85767	-86.77129	841.47455	1261.24158	-57.68611	1494.10950	1168.98755	-22.32064	1308.93311	1146.62573	-29.99139	1162.88062	1123.80933	-56.70860	1046.38135	1137.16101	-104.30411	919.46832	1105.34546	-57.18317	917.18182	1099.08716	-95.33575	855.94666	1571.81519	-128.09282	983.91827	1314.90747	-161.93222	980.97504	1460.84314	68.32097	1031.40674	1346.50342	57.31714	1036.86890	1637.39160	-87.42544	679.01239	1625.21545	-87.66347	494.04099	1593.88232	54.43298	380.84140	1553.76123	177.44582	198.37001	1490.79041	201.37697	188.19127	1608.30042	97.35974	76.07818	1249.07996	-112.26623	673.73016	1299.67456	-116.67621	465.21713	1296.65393	-77.13167	279.82745	1342.28027	-56.72784	89.13502	1399.45398	-20.01301	36.50840	1336.90259	-209.61124	36.00062	1411.62073	-73.21006	1805.52429						 
